<svg id="visual" viewBox="0 0 900 675" width="900" height="675" xmlns="http://www.w3.org/2000/svg" xmlns:xlink="http://www.w3.org/1999/xlink" version="1.1"><path d="M552 0L516.3 16C480.7 32 409.3 64 396.8 96.2C384.3 128.3 430.7 160.7 441.5 192.8C452.3 225 427.7 257 446.5 289.2C465.3 321.3 527.7 353.7 544.7 385.8C561.7 418 533.3 450 482.5 482.2C431.7 514.3 358.3 546.7 338.8 578.8C319.3 611 353.7 643 370.8 659L388 675L0 675L0 659C0 643 0 611 0 578.8C0 546.7 0 514.3 0 482.2C0 450 0 418 0 385.8C0 353.7 0 321.3 0 289.2C0 257 0 225 0 192.8C0 160.7 0 128.3 0 96.2C0 64 0 32 0 16L0 0Z" fill="#2b1412" stroke-linecap="round" stroke-linejoin="miter"></path></svg>