<svg id="visual" viewBox="0 0 1600 900" width="1600" height="900" xmlns="http://www.w3.org/2000/svg" xmlns:xlink="http://www.w3.org/1999/xlink" version="1.1"><path d="M927 0L773 129L698 257L709 386L824 514L896 643L812 771L1022 900L0 900L0 771L0 643L0 514L0 386L0 257L0 129L0 0Z" fill="#5c4038"></path><path d="M609 0L828 129L642 257L911 386L843 514L804 643L865 771L612 900L0 900L0 771L0 643L0 514L0 386L0 257L0 129L0 0Z" fill="#523730"></path><path d="M571 0L546 129L662 257L658 386L738 514L489 643L653 771L672 900L0 900L0 771L0 643L0 514L0 386L0 257L0 129L0 0Z" fill="#482d29"></path><path d="M392 0L357 129L524 257L582 386L519 514L341 643L552 771L331 900L0 900L0 771L0 643L0 514L0 386L0 257L0 129L0 0Z" fill="#3e2521"></path><path d="M211 0L334 129L420 257L399 386L239 514L380 643L344 771L335 900L0 900L0 771L0 643L0 514L0 386L0 257L0 129L0 0Z" fill="#341c1a"></path><path d="M273 0L126 129L164 257L97 386L136 514L145 643L251 771L241 900L0 900L0 771L0 643L0 514L0 386L0 257L0 129L0 0Z" fill="#2b1412"></path></svg>