<svg id="visual" viewBox="0 0 900 900" width="900" height="900" xmlns="http://www.w3.org/2000/svg" xmlns:xlink="http://www.w3.org/1999/xlink" version="1.1"><path d="M809 900L755 855L773 810L899 765L836 720L764 675L809 630L755 585L764 540L773 495L890 450L791 405L809 360L890 315L863 270L854 225L845 180L764 135L836 90L782 45L899 0L900 0L900 45L900 90L900 135L900 180L900 225L900 270L900 315L900 360L900 405L900 450L900 495L900 540L900 585L900 630L900 675L900 720L900 765L900 810L900 855L900 900Z" fill="#f9eae317"></path><path d="M404 900L611 855L611 810L638 765L755 720L377 675L368 630L449 585L359 540L710 495L845 450L467 405L521 360L854 315L575 270L611 225L557 180L503 135L557 90L395 45L548 0L900 0L783 45L837 90L765 135L846 180L855 225L864 270L891 315L810 360L792 405L891 450L774 495L765 540L756 585L810 630L765 675L837 720L900 765L774 810L756 855L810 900Z" fill="#f9eae317"></path><path d="M278 900L602 855L530 810L440 765L647 720L323 675L359 630L431 585L278 540L512 495L647 450L350 405L332 360L764 315L458 270L422 225L548 180L350 135L359 90L269 45L476 0L549 0L396 45L558 90L504 135L558 180L612 225L576 270L855 315L522 360L468 405L846 450L711 495L360 540L450 585L369 630L378 675L756 720L639 765L612 810L612 855L405 900Z" fill="#f3d5c7"></path><path d="M179 900L413 855L332 810L233 765L359 720L116 675L278 630L269 585L197 540L233 495L206 450L296 405L305 360L269 315L422 270L224 225L350 180L341 135L278 90L197 45L386 0L477 0L270 45L360 90L351 135L549 180L423 225L459 270L765 315L333 360L351 405L648 450L513 495L279 540L432 585L360 630L324 675L648 720L441 765L531 810L603 855L279 900Z" fill="#ebc1ac"></path><path d="M161 900L143 855L269 810L197 765L125 720L44 675L107 630L188 585L134 540L35 495L152 450L107 405L53 360L152 315L197 270L89 225L161 180L161 135L179 90L170 45L152 0L387 0L198 45L279 90L342 135L351 180L225 225L423 270L270 315L306 360L297 405L207 450L234 495L198 540L270 585L279 630L117 675L360 720L234 765L333 810L414 855L180 900Z" fill="#e2ad92"></path><path d="M116 900L80 855L143 810L161 765L98 720L0 675L71 630L107 585L116 540L35 495L98 450L62 405L26 360L53 315L134 270L26 225L89 180L143 135L161 90L152 45L134 0L153 0L171 45L180 90L162 135L162 180L90 225L198 270L153 315L54 360L108 405L153 450L36 495L135 540L189 585L108 630L45 675L126 720L198 765L270 810L144 855L162 900Z" fill="#d99978"></path><path d="M0 900L0 855L0 810L0 765L0 720L0 675L0 630L0 585L0 540L0 495L0 450L0 405L0 360L0 315L0 270L0 225L0 180L0 135L0 90L0 45L0 0L135 0L153 45L162 90L144 135L90 180L27 225L135 270L54 315L27 360L63 405L99 450L36 495L117 540L108 585L72 630L0 675L99 720L162 765L144 810L81 855L117 900Z" fill="#ce865f"></path></svg>