<svg id="visual" viewBox="0 0 675 900" width="675" height="900" xmlns="http://www.w3.org/2000/svg" xmlns:xlink="http://www.w3.org/1999/xlink" version="1.1"><path d="M554 0L501 13.7C448 27.3 342 54.7 322.8 82C303.7 109.3 371.3 136.7 391.2 163.8C411 191 383 218 327 245.2C271 272.3 187 299.7 171.5 327C156 354.3 209 381.7 267.3 409C325.7 436.3 389.3 463.7 366.5 491C343.7 518.3 234.3 545.7 208.2 573C182 600.3 239 627.7 245.5 654.8C252 682 208 709 227.2 736.2C246.3 763.3 328.7 790.7 372 818C415.3 845.3 419.7 872.7 421.8 886.3L424 900L0 900L0 886.3C0 872.7 0 845.3 0 818C0 790.7 0 763.3 0 736.2C0 709 0 682 0 654.8C0 627.7 0 600.3 0 573C0 545.7 0 518.3 0 491C0 463.7 0 436.3 0 409C0 381.7 0 354.3 0 327C0 299.7 0 272.3 0 245.2C0 218 0 191 0 163.8C0 136.7 0 109.3 0 82C0 54.7 0 27.3 0 13.7L0 0Z" fill="#2b1412" stroke-linecap="round" stroke-linejoin="miter"></path></svg>